<?xml version="1.0" encoding="UTF-8"?>
<!DOCTYPE svg PUBLIC "-//W3C//DTD SVG 1.1//EN" "http://www.w3.org/Graphics/SVG/1.1/DTD/svg11.dtd">
<!-- Creator: CorelDRAW 2020 (64-Bit) -->
<svg xmlns="http://www.w3.org/2000/svg" xml:space="preserve" width="226.75mm" height="56.8375mm" version="1.1" style="shape-rendering:geometricPrecision; text-rendering:geometricPrecision; image-rendering:optimizeQuality; fill-rule:evenodd; clip-rule:evenodd"
viewBox="0 0 21396.41 5363.25"
 xmlns:xlink="http://www.w3.org/1999/xlink"
 xmlns:xodm="http://www.corel.com/coreldraw/odm/2003">
 <defs>
  <style type="text/css">
   <![CDATA[
    .str0 {stroke:#FEFEFE;stroke-width:18.87;stroke-miterlimit:22.9256}
    .fil0 {fill:#FEFEFE}
    .fil2 {fill:#00627D;fill-rule:nonzero}
    .fil1 {fill:#B8CDDB;fill-rule:nonzero}
   ]]>
  </style>
 </defs>
 <g id="Capa_x0020_1">
  <metadata id="CorelCorpID_0Corel-Layer"/>
  <polygon class="fil0 str0" points="9.44,9.44 21386.97,9.44 21386.97,5353.82 9.44,5353.82 "/>
  <g id="_2260366186288">
   <path class="fil1" d="M4242.99 2637.35c-90.94,-55.6 -210.8,-103.71 -256.97,-138.56 -18.49,-13.97 -38.02,-25.86 -56.33,-40.17 -12.5,-9.79 -29.67,-23.11 -32.75,-42.23 -0.63,-3.93 -0.5,-7.97 0.34,-11.85 0.99,-4.56 2.95,-8.9 5.59,-12.59 6.16,-8.69 15.95,-13.97 25.29,-11.01 13.09,4.16 57.87,-19.07 82.68,-39 24.8,-19.92 28.37,-36.15 16.15,-34.08 0,0 -27.19,0.75 -26.48,-0.67 0.77,-1.58 29.55,-5.44 32.18,-6.73 5.01,-2.49 -9.45,-50.63 -59.74,-51.46 -50.29,-0.81 -90.26,19.1 -105.41,37.35 -15.15,18.25 -8.95,27.36 -18.59,34.01 -9.65,6.65 -45.47,44.81 -50.98,98.76 -5.52,53.93 48.91,124.46 136.4,162.63 87.49,38.17 197.72,75.51 236.31,97.91 38.57,22.42 108.17,73.87 54.42,117 -53.73,43.15 -134.33,101.23 -186,142.73 -51.66,41.49 -103.33,102.06 -98.52,157.67 4.83,55.59 66.15,126.12 100.58,156.82 34.46,30.7 123.33,117.02 131.59,143.56 8.28,26.55 25.51,50.61 -14.47,108.69 -2.76,3.99 -5.6,7.95 -8.45,11.86 -15.87,21.66 -32.51,42.69 -47.2,65.29 -16.66,25.64 -31.1,53.23 -39.78,83.16 -4.6,15.81 -7.55,32.2 -8.51,48.74 -0.49,8.74 -0.46,17.51 0.1,26.27 1.1,16.6 5.28,34.28 12.77,48.95 4.55,8.92 9.43,18.1 9.94,17.49 1.16,-1.34 -10.49,-38.14 -12.54,-54.49 -3.42,-27.23 3.52,-78.84 39.65,-129.44 36.12,-50.63 100.19,-102.91 113.98,-141.08 13.78,-38.17 32.38,-77.16 -35.13,-156 -67.52,-78.82 -180.51,-175.92 -178.44,-230.68 2.07,-54.76 52.35,-93.77 143.3,-156.82 36.98,-25.66 75.57,-48.89 111.7,-75.92 37.71,-28.21 72.93,-65.18 70.66,-118.19 -2.22,-51.23 -49.89,-85.06 -87.29,-107.93zm-272.38 -362.88l0 0c8.01,0 14.5,3.7 14.5,8.28 0,4.6 -6.49,8.3 -14.5,8.3 -8.02,0 -14.5,-3.71 -14.5,-8.3 0,-4.59 6.48,-8.28 14.5,-8.28zm61.66 362.88c90.94,-55.6 210.81,-103.71 256.96,-138.56 18.5,-13.97 38.03,-25.86 56.35,-40.17 12.49,-9.79 29.66,-23.11 32.74,-42.23 0.63,-3.93 0.5,-7.97 -0.34,-11.85 -0.99,-4.56 -2.95,-8.9 -5.59,-12.59 -6.16,-8.69 -15.95,-13.97 -25.29,-11.01 -13.09,4.16 -57.88,-19.07 -82.68,-39 -24.8,-19.92 -28.36,-36.15 -16.15,-34.08 0,0 27.19,0.75 26.49,-0.67 -0.78,-1.58 -29.55,-5.44 -32.18,-6.73 -5.02,-2.49 9.44,-50.63 59.74,-51.46 50.29,-0.81 90.25,19.1 105.4,37.35 15.15,18.25 8.95,27.36 18.6,34.01 9.64,6.65 45.46,44.81 50.98,98.76 5.51,53.93 -48.92,124.46 -136.41,162.63 -87.49,38.17 -197.71,75.51 -236.3,97.91 -38.58,22.42 -108.18,73.87 -54.43,117 53.73,43.15 134.34,101.23 186,142.73 51.67,41.49 103.34,102.06 98.53,157.67 -4.84,55.59 -66.16,126.12 -100.59,156.82 -34.45,30.7 -123.33,117.02 -131.6,143.56 -8.27,26.55 -25.49,50.61 14.47,108.69 2.76,3.99 5.6,7.95 8.45,11.86 15.87,21.66 32.51,42.69 47.2,65.29 16.66,25.64 31.1,53.23 39.79,83.16 4.6,15.81 7.54,32.2 8.5,48.74 0.5,8.74 0.46,17.51 -0.1,26.27 -1.09,16.6 -5.28,34.28 -12.77,48.95 -4.55,8.92 -9.43,18.1 -9.93,17.49 -1.16,-1.34 10.48,-38.14 12.54,-54.49 3.41,-27.23 -3.52,-78.84 -39.66,-129.44 -36.12,-50.63 -100.19,-102.91 -113.98,-141.08 -13.78,-38.17 -32.37,-77.16 35.14,-156 67.52,-78.82 180.5,-175.92 178.44,-230.68 -2.08,-54.76 -52.37,-93.77 -143.31,-156.82 -36.98,-25.66 -75.57,-48.89 -111.7,-75.92 -37.71,-28.21 -72.93,-65.18 -70.65,-118.19 2.21,-51.23 49.88,-85.06 87.28,-107.93zm272.39 -362.88l0 0c-8.02,0 -14.51,3.7 -14.51,8.28 0,4.6 6.49,8.3 14.51,8.3 8,0 14.5,-3.71 14.5,-8.3 0,-4.59 -6.5,-8.28 -14.5,-8.28zm-95.32 -112.53l15.98 -404.18c0.02,-4.64 -2.09,-9.6 -8.16,-9.6l-35.3 0 0 -8.27c31.04,-16.44 52.19,-49.06 52.19,-86.61 0,-54.1 -43.85,-97.95 -97.93,-97.95 -54.08,0 -97.94,43.85 -97.94,97.95 0,37.56 21.16,70.18 52.2,86.61l0 8.26 -35.41 -0.02c-5.82,0.02 -8.12,3.13 -8.16,9.64l11.22 404.16 151.32 0zm-380.11 -450.74c-30.24,-4.37 -59.58,6.02 -88.11,14.49 -259.14,98.25 -443.01,34.32 -588.33,83.18 -26.46,71.96 105.45,129.15 168.07,111.53 -5.57,25.65 13.54,64.17 36.18,77.49 33.41,19.36 76.33,20.57 111.7,5.91 7.43,28.6 26.8,54.35 54.11,66.45 35.7,10.72 80.07,11.27 110.49,-14.28 9.26,17.17 21.43,32.93 36.67,45.23 34.06,40.89 109.56,6.21 144.39,-14.05 33.5,36.11 157.88,40.52 190.8,20.07 -4.14,-224.54 -0.7,-55.35 -5.91,-231.34 -54.76,-1.29 -122.65,-10.71 -136.51,-72.52 -3.2,-24.93 3.69,-88.07 -33.54,-92.17zm611.36 0c30.24,-4.37 59.56,6.02 88.1,14.49 259.15,98.25 443.01,34.32 588.33,83.18 26.46,71.96 -105.45,129.15 -168.07,111.53 5.57,25.65 -13.54,64.17 -36.17,77.49 -33.42,19.36 -76.34,20.57 -111.71,5.91 -7.43,28.6 -26.8,54.35 -54.11,66.45 -35.7,10.72 -80.07,11.27 -110.48,-14.28 -9.27,17.17 -21.43,32.93 -36.68,45.23 -34.06,40.89 -109.56,6.21 -144.38,-14.05 -33.51,36.11 -157.88,40.52 -190.8,20.07 4.13,-224.54 0.69,-55.35 5.9,-231.34 54.77,-1.29 122.65,-10.71 136.52,-72.52 3.19,-24.93 -3.7,-88.07 33.54,-92.17zm1380.64 30.87c87.09,0 157.72,70.62 157.72,157.71 0,87.1 -70.63,157.72 -157.72,157.72 -87.09,0 -157.7,-70.61 -157.7,-157.72 0,-87.09 70.61,-157.71 157.7,-157.71zm549.31 598.22c48.39,0 87.61,39.23 87.61,87.61 0,48.4 -39.23,87.61 -87.61,87.61 -48.38,0 -87.6,-39.22 -87.6,-87.61 0,-48.39 39.23,-87.61 87.6,-87.61zm549.57 -598.22c87.1,0 157.72,70.62 157.72,157.71 0,87.1 -70.62,157.72 -157.72,157.72 -87.09,0 -157.7,-70.61 -157.7,-157.72 0,-87.09 70.61,-157.71 157.7,-157.71z"/>
   <path class="fil2" d="M5460.48 2161.98l0 148.72 272.83 0 0 632.38c0,245.68 -104.84,460.89 -382.44,428.35l0 161.11c358.62,23.91 558.57,-252.01 558.57,-589.47l0 -637.04 370.25 453.82 0 142.15 181.6 0 0 -142.8c15.48,-6.9 325.56,-410.09 365.97,-450.07l0 1222.74c136.34,10.9 257.62,19.58 395.56,19.58 373.77,0 573.39,-158.5 573.39,-407.03 0,-162.45 -93.94,-272.04 -270.07,-334.65 146.79,-64.6 225.07,-162.43 225.07,-307.27 0,-217.22 -185.93,-352.26 -520.57,-352.26 -161.77,0 -321.11,11.69 -483.59,11.69l-353.25 443.7c-16.14,19.23 -27.11,18.9 -42.41,-1.3l-357.8 -442.39c-166.26,0 -366.85,0.05 -533.11,0.05zm-251.45 1155.96c-86.76,-64.84 -129.63,-183.97 -129.63,-348.45l0 -807.56 -187.34 0 0 585.17 -697.77 0 15.05 -585.17 -151.32 0 79.31 1372.82 9.98 -13.4 38.71 -612.18 706.04 -1.62c4.05,256.47 29.86,506.65 316.98,598.91l0 -188.52zm1804.4 67.19l-0.03 -483.38 223.11 0c236.81,0 369.86,93.93 369.86,250.48 0,158.52 -136.97,244.64 -369.86,244.64 -78.26,0 -154.57,-3.92 -223.08,-11.74zm-0.03 -628.21l0 -446.21c60.67,-5.87 129.17,-9.77 215.29,-9.77 207.42,0 336.59,78.28 336.59,225.05 0,137.01 -131.11,230.93 -336.59,230.93l-215.29 0zm-2872.24 847.21c-5.34,4.78 -9.63,9.61 -13.05,14.31l1.79 76.26 4.66 10.58 4.98 -10.58 3.06 -91.8c-0.47,0.4 -0.98,0.82 -1.44,1.24z"/>
   <path class="fil2" d="M8302.8 2894.24l60.49 0 0 -290 343.84 0 0 290 58 0 0 -591.6 -58 0 0 243.6 -343.84 0 0 -243.6 -60.49 0 0 591.6zm865.84 -599.88c-169.86,0 -308.22,137.54 -308.22,299.95 0,169.03 138.36,306.57 308.22,306.57 169.85,0 308.21,-137.54 308.21,-306.57 0,-162.4 -138.36,-299.95 -308.21,-299.95zm0 546.03c-136.71,0 -245.25,-109.37 -245.25,-246.08 0,-130.09 108.54,-239.46 245.25,-239.46 136.71,0 245.25,109.37 245.25,239.46 0,136.71 -108.54,246.08 -245.25,246.08zm734.09 -416.77c-13.26,-76.22 -80.37,-130.09 -163.22,-130.09 -101.92,0 -169.85,68.78 -169.85,158.26 0,89.48 59.65,130.92 169.85,164.88 93.63,29.01 129.26,58.83 129.26,113.52 0,68.77 -57.17,111.03 -129.26,111.03 -63.8,0 -116.01,-40.59 -127.6,-97.77l-62.98 0c11.6,91.97 91.97,158.25 190.57,158.25 106.88,0 192.21,-67.94 192.21,-171.51 0,-103.57 -82.02,-146.66 -192.21,-181.46 -71.26,-22.37 -106.88,-45.57 -106.88,-96.94 0,-51.37 42.25,-97.78 106.88,-97.78 44.75,0 84.51,30.66 96.94,69.6l66.28 0zm136.72 -120.97l0 591.6 60.49 0 0 -223.71 133.39 0c113.52,0 188.91,-73.74 188.91,-183.94 0,-110.2 -76.22,-183.95 -188.91,-183.95l-193.87 0zm60.49 309.88l0 -251.88 133.39 0c76.23,0 125.94,50.54 125.94,125.94 0,75.39 -50.54,125.93 -125.94,125.93l-133.39 0zm413.44 281.72l60.49 0 0 -591.6 -60.49 0 0 591.6zm335.57 0l60.49 0 0 -533.59 199.68 0 0 -58 -460.68 0 0 58 200.52 0 0 533.59zm227.01 0l65.47 0 106.05 -235.31 254.36 0 106.05 235.31 65.46 0 -265.97 -591.6 -65.46 0 -265.97 591.6zm400.2 -293.31l-203 0 101.92 -225.37 101.08 225.37zm246.91 293.31l333.07 0 0 -57.99 -272.58 0 0 -533.6 -60.49 0 0 591.6zm884.06 13.26c142.5,0 226.19,-84.52 226.19,-227.02l0 -377.83 -60.49 0 0 377.83c0,104.39 -61.32,166.54 -165.71,166.54 -105.23,0 -167.37,-62.15 -167.37,-166.54l0 -377.83 -60.49 0 0 377.83c0,142.5 84.51,227.02 227.85,227.02zm342.19 -13.26l60.49 0 0 -508.74 370.36 508.74 72.92 0 0 -591.6 -60.49 0 0 508.75 -370.37 -508.75 -72.91 0 0 591.6zm636.32 0l60.48 0 0 -591.6 -60.48 0 0 591.6zm376.16 0l65.46 0 249.4 -591.6 -65.46 0 -216.26 513.71 -217.08 -513.71 -65.45 0 249.39 591.6zm381.13 0l343.02 0 0 -57.99 -282.54 0 0 -251.89 265.97 0 0 -58 -265.97 0 0 -165.71 282.54 0 0 -58 -343.02 0 0 591.6zm450.73 0l60.49 0 0 -223.71 110.19 0 176.48 223.71 80.37 0 -180.62 -229.51c83.68,-19.88 135.88,-86.16 135.88,-178.13 0,-110.2 -76.23,-183.95 -188.92,-183.95l-193.87 0 0 591.6zm60.49 -281.72l0 -251.88 133.39 0c76.23,0 125.95,50.54 125.95,125.94 0,75.39 -50.55,125.93 -125.95,125.93l-133.39 0zm772.21 -188.91c-13.26,-76.22 -80.37,-130.09 -163.23,-130.09 -101.91,0 -169.85,68.78 -169.85,158.26 0,89.48 59.66,130.92 169.85,164.88 93.63,29.01 129.26,58.83 129.26,113.52 0,68.77 -57.17,111.03 -129.26,111.03 -63.8,0 -116,-40.59 -127.6,-97.77l-62.98 0c11.61,91.97 91.97,158.25 190.57,158.25 106.88,0 192.22,-67.94 192.22,-171.51 0,-103.57 -82.03,-146.66 -192.22,-181.46 -71.25,-22.37 -106.88,-45.57 -106.88,-96.94 0,-51.37 42.25,-97.78 106.88,-97.78 44.75,0 84.51,30.66 96.94,69.6l66.29 0zm120.14 470.63l60.49 0 0 -591.6 -60.49 0 0 591.6zm335.56 0l60.49 0 0 -533.59 199.69 0 0 -58 -460.67 0 0 58 200.5 0 0 533.59zm227.03 0l65.46 0 106.05 -235.31 254.36 0 106.05 235.31 65.47 0 -265.97 -591.6 -65.47 0 -265.96 591.6zm400.19 -293.31l-203 0 101.92 -225.37 101.08 225.37zm263.48 293.31l60.49 0 0 -223.71 110.19 0 176.48 223.71 80.37 0 -180.62 -229.51c83.67,-19.88 135.88,-86.16 135.88,-178.13 0,-110.2 -76.23,-183.95 -188.92,-183.95l-193.87 0 0 591.6zm60.49 -281.72l0 -251.88 133.39 0c76.22,0 125.95,50.54 125.95,125.94 0,75.39 -50.55,125.93 -125.95,125.93l-133.39 0zm441.62 281.72l60.49 0 0 -591.6 -60.49 0 0 591.6zm463.98 -599.88c-169.85,0 -308.21,137.54 -308.21,299.95 0,169.03 138.36,306.57 308.21,306.57 169.86,0 308.22,-137.54 308.22,-306.57 0,-162.4 -138.36,-299.95 -308.22,-299.95zm0 546.03c-136.71,0 -245.25,-109.37 -245.25,-246.08 0,-130.09 108.54,-239.46 245.25,-239.46 136.72,0 245.25,109.37 245.25,239.46 0,136.71 -108.53,246.08 -245.25,246.08zm-9491.44 521.52c0,75.37 -27.4,103.45 -71.25,103.45 -26.71,0 -53.44,-14.38 -71.93,-33.56l-31.52 50.01c24.67,23.98 63.71,39.74 105.51,39.74 80.16,0 134.28,-50.01 134.28,-166.48l0 -321.31 -65.08 0 0 328.16zm506.29 106.87c-20.56,0 -40.42,-8.22 -40.42,-47.94l0 -263.77 -61.66 0 0 267.87c-27.41,25.35 -63.71,41.78 -101.39,41.78 -45.91,0 -69.88,-30.82 -69.88,-86.32l0 -223.33 -61.66 0 0 231.56c0,97.29 58.23,132.91 119.89,132.91 48.64,0 91.12,-22.61 123.32,-55.49 9.59,32.88 34.93,50.7 78.78,50.7l13.02 -47.96zm140.44 -462.45l-61.67 0 0 395.31c0,85.64 48.65,119.9 111.68,119.9 29.46,0 54.13,-6.17 70.56,-13.7l-15.07 -50.02c-12.33,5.48 -30.14,10.29 -47.27,10.29 -36.31,0 -58.23,-23.29 -58.23,-72.62l0 -389.15zm240.47 150.73l-61.67 0 0 356.25 61.67 0 0 -356.25zm-30.83 -60.98c26.71,0 43.16,-17.13 43.16,-43.16 0,-23.3 -19.18,-43.17 -43.16,-43.17 -26.72,0 -43.16,17.13 -43.16,43.17 0,23.29 19.18,43.16 43.16,43.16zm404.88 239.1c0,78.1 -42.48,131.53 -114.41,131.53 -65.08,0 -114.41,-60.98 -114.41,-132.91 0,-78.09 42.47,-130.17 114.41,-130.17 65.08,0 114.41,60.29 114.41,131.55zm-291.85 0c0,110.3 75.36,186.34 177.44,186.34 101.39,0 177.44,-73.99 177.44,-187.72 0,-113.04 -78.1,-184.98 -177.44,-184.98 -100.71,0 -177.44,71.25 -177.44,186.35zm1032.42 178.13l65.09 0 0 -479.57 -93.17 0 -130.85 303.49 -132.91 -303.49 -91.12 0 0 479.57 61.65 0 0 -396.68 128.8 288.42 64.4 0 128.1 -288.42 0 396.68zm469.98 -152.78c1.36,-15.07 2.05,-30.15 2.05,-46.59 0,-90.44 -51.38,-165.11 -153.45,-165.11 -95.93,0 -161,79.47 -161,186.35 0,117.84 64.39,186.34 166.47,186.34 50.7,0 91.8,-10.28 124.69,-25.35l-14.39 -52.76c-30.15,13.7 -61.66,23.29 -102.76,23.29 -63.03,0 -102.77,-39.74 -110.99,-106.18l249.38 0zm-152.78 -158.26c60.98,0 97.97,39.06 97.97,108.25l-195.25 0c6.86,-70.57 43.85,-108.25 97.29,-108.25zm-50.69 -82.9l137.01 -69.88 -28.77 -57.54 -129.48 85.64 21.24 41.78zm347.33 37.69l-59.6 0 0 356.25 61.66 0 0 -235.68c26.03,-40.42 65.08,-74.68 107.55,-74.68 43.17,0 68.52,33.56 68.52,84.95l0 225.4 61.66 0 0 -232.25c0,-79.47 -39.74,-132.23 -119.89,-132.23 -54.8,0 -94.54,29.46 -119.9,67.83l0 -59.6zm480.93 364.47c54.81,0 89.75,-28.09 110.31,-56.86 9.59,34.25 35.62,52.07 79.47,52.07l13.01 -47.96c-19.87,0 -40.41,-6.84 -40.41,-41.79l0 -420.65 -61.67 0 0 186.35c-19.17,-19.87 -54.13,-43.85 -101.39,-43.85 -86.32,0 -158.26,80.16 -158.26,188.4 0,112.37 70.57,184.3 158.94,184.3zm13.71 -54.81c-62.34,0 -109.62,-55.48 -109.62,-131.53 0,-74.68 42.47,-132.92 108.93,-132.92 37.68,0 70.56,22.61 87.69,44.54l0 176.76c-21.24,25.35 -53.44,43.15 -87,43.15zm552.86 -106.18c1.37,-15.07 2.06,-30.15 2.06,-46.59 0,-90.44 -51.38,-165.11 -153.46,-165.11 -95.92,0 -161,79.47 -161,186.35 0,117.84 64.4,186.34 166.47,186.34 50.7,0 91.8,-10.28 124.69,-25.35l-14.38 -52.76c-30.16,13.7 -61.67,23.29 -102.77,23.29 -63.03,0 -102.77,-39.74 -110.99,-106.18l249.38 0zm-152.78 -158.26c60.98,0 97.98,39.06 97.98,108.25l-195.26 0c6.86,-70.57 43.86,-108.25 97.29,-108.25zm210.33 8.23l192.51 0 -196.62 254.17 0 48.64 275.4 0 0 -54.8 -199.36 0 195.93 -254.18 0 -47.27 -267.86 0 0 53.44zm562.45 301.44c29.46,4.11 82.9,6.85 138.39,6.85 130.86,0 200.73,-55.49 200.73,-142.49 0,-56.86 -32.88,-95.23 -94.54,-117.15 51.38,-22.62 78.78,-56.87 78.78,-107.57 0,-76.05 -65.09,-123.31 -182.24,-123.31 -61.66,0 -108.92,3.43 -141.13,6.85l0 476.83zm143.18 -47.27c-27.4,0 -54.13,-1.38 -78.1,-4.11l0 -169.22 78.1 0c82.9,0 129.48,32.88 129.48,87.69 0,55.49 -47.95,85.64 -129.48,85.64zm-78.1 -224.03l0 -156.21c21.24,-2.05 45.22,-3.42 75.37,-3.42 72.61,0 117.83,27.4 117.83,78.78 0,47.95 -45.9,80.84 -117.83,80.84l-75.37 0zm335.71 96.6c0,112.37 71.24,184.3 160.31,184.3 55.48,0 90.43,-28.77 111.66,-58.24 8.91,34.95 34.95,53.45 79.48,53.45l13.01 -47.96c-19.86,0 -40.42,-6.84 -40.42,-41.79l0 -269.92 -56.17 0 0 28.77c-24.66,-20.55 -58.23,-37 -99.34,-37 -99.33,0 -168.52,82.22 -168.52,188.4zm174 129.48c-63.71,0 -110.99,-54.12 -110.99,-131.53 0,-79.47 45.91,-132.92 111.68,-132.92 32.88,0 63.02,11.65 87.69,28.78l0 191.15c-21.24,26.02 -54.13,44.52 -88.38,44.52zm484.37 -313.77c-9.59,-2.75 -23.98,-4.11 -37.68,-4.11 -60.98,0 -97.29,41.1 -114.41,85.64l0 -77.41 -59.6 0 0 356.25 61.66 0 0 -166.48c0,-93.17 50.01,-135.65 100.71,-135.65 11.64,0 22.61,2.06 30.83,5.48l18.49 -63.71zm273.35 0c-9.6,-2.75 -23.99,-4.11 -37.68,-4.11 -60.98,0 -97.29,41.1 -114.41,85.64l0 -77.41 -59.61 0 0 356.25 61.67 0 0 -166.48c0,-93.17 50.01,-135.65 100.7,-135.65 11.65,0 22.61,2.06 30.83,5.48l18.5 -63.71zm329.53 207.59c1.37,-15.07 2.06,-30.15 2.06,-46.59 0,-90.44 -51.38,-165.11 -153.46,-165.11 -95.92,0 -161,79.47 -161,186.35 0,117.84 64.4,186.34 166.48,186.34 50.69,0 91.8,-10.28 124.69,-25.35l-14.39 -52.76c-30.15,13.7 -61.66,23.29 -102.77,23.29 -63.02,0 -102.76,-39.74 -110.99,-106.18l249.38 0zm-152.77 -158.26c60.97,0 97.97,39.06 97.97,108.25l-195.25 0c6.85,-70.57 43.85,-108.25 97.29,-108.25zm296.64 -45.21l-59.6 0 0 356.25 61.66 0 0 -235.68c26.02,-40.42 65.08,-74.68 107.55,-74.68 43.16,0 68.51,33.56 68.51,84.95l0 225.4 61.67 0 0 -232.25c0,-79.47 -39.74,-132.23 -119.9,-132.23 -54.8,0 -94.54,29.46 -119.89,67.83l0 -59.6zm634.39 203.47c1.37,-15.07 2.06,-30.15 2.06,-46.59 0,-90.44 -51.39,-165.11 -153.46,-165.11 -95.92,0 -161,79.47 -161,186.35 0,117.84 64.4,186.34 166.48,186.34 50.69,0 91.8,-10.28 124.69,-25.35l-14.39 -52.76c-30.15,13.7 -61.66,23.29 -102.77,23.29 -63.02,0 -102.76,-39.74 -110.99,-106.18l249.38 0zm-152.77 -158.26c60.97,0 97.97,39.06 97.97,108.25l-195.25 0c6.85,-70.57 43.85,-108.25 97.29,-108.25zm482.99 -32.2c-28.09,-13.7 -56.86,-21.24 -97.29,-21.24 -106.18,0 -172.64,83.59 -172.64,186.35 0,109.62 65.77,186.34 167.84,186.34 44.54,0 78.79,-9.6 107.57,-25.35l-19.19 -52.07c-28.08,15.07 -50,22.6 -84.26,22.6 -65.09,0 -108.93,-58.91 -108.93,-132.91 0,-81.53 48.63,-130.17 113.04,-130.17 28.08,0 49.32,5.48 75.37,18.5l18.49 -52.07zm139.07 -163.74l-61.66 0 0 506.98 61.66 0 0 -235.68c26.03,-40.42 65.77,-74.68 108.24,-74.68 43.16,0 67.83,33.56 67.83,84.95l0 225.4 61.66 0 0 -232.25c0,-79.47 -39.74,-132.23 -119.89,-132.23 -53.44,0 -92.49,28.09 -117.84,65.09l0 -207.59zm632.34 354.2c1.37,-15.07 2.05,-30.15 2.05,-46.59 0,-90.44 -51.38,-165.11 -153.46,-165.11 -95.91,0 -160.99,79.47 -160.99,186.35 0,117.84 64.39,186.34 166.47,186.34 50.69,0 91.8,-10.28 124.69,-25.35l-14.39 -52.76c-30.14,13.7 -61.66,23.29 -102.77,23.29 -63.02,0 -102.76,-39.74 -110.98,-106.18l249.38 0zm-152.78 -158.26c60.98,0 97.98,39.06 97.98,108.25l-195.26 0c6.85,-70.57 43.85,-108.25 97.29,-108.25zm449.42 311.04l287.74 0 0 -56.18 -222.65 0 0 -166.48 191.83 0 0 -54.8 -191.83 0 0 -145.93 222.65 0 0 -56.17 -287.74 0 0 479.57zm375.43 -37.69c0,24.67 21.24,45.91 45.91,45.91 26.71,0 45.9,-18.5 45.9,-45.91 0,-24.66 -21.92,-45.9 -45.9,-45.9 -28.77,0 -45.91,17.82 -45.91,45.9zm169.22 -2.74c37,29.46 93.85,48.64 160.31,48.64 101.39,0 174.02,-51.39 174.02,-140.45 0,-65.09 -34.95,-108.25 -141.82,-147.99 -89.07,-32.88 -104.14,-52.06 -104.14,-87.69 0,-37.68 37,-63.71 97.28,-63.71 45.22,0 89.07,14.39 119.9,32.2l23.98 -55.49c-43.16,-21.24 -86.32,-32.88 -142.49,-32.88 -104.82,0 -163.06,55.5 -163.06,123.32 0,69.2 34.25,104.83 133.59,142.5 91.8,34.94 109.62,58.23 109.62,97.29 0,46.59 -41.09,76.05 -106.87,76.05 -54.81,0 -94.54,-19.18 -127.43,-46.6l-32.88 54.81zm425.45 2.74c0,24.67 21.23,45.91 45.9,45.91 26.71,0 45.91,-18.5 45.91,-45.91 0,-24.66 -21.93,-45.9 -45.91,-45.9 -28.77,0 -45.9,17.82 -45.9,45.9zm210.32 37.69l287.74 0 0 -56.18 -222.65 0 0 -166.48 191.83 0 0 -54.8 -191.83 0 0 -145.93 222.65 0 0 -56.17 -287.74 0 0 479.57zm375.43 -37.69c0,24.67 21.24,45.91 45.91,45.91 26.72,0 45.9,-18.5 45.9,-45.91 0,-24.66 -21.92,-45.9 -45.9,-45.9 -28.77,0 -45.91,17.82 -45.91,45.9z"/>
  </g>
 </g>
</svg>
