<?xml version="1.0" encoding="UTF-8"?>
<!DOCTYPE svg PUBLIC "-//W3C//DTD SVG 1.1//EN" "http://www.w3.org/Graphics/SVG/1.1/DTD/svg11.dtd">
<!-- Creator: CorelDRAW 2020 (64-Bit) -->
<svg xmlns="http://www.w3.org/2000/svg" xml:space="preserve" width="144.084mm" height="95.4821mm" version="1.1" style="shape-rendering:geometricPrecision; text-rendering:geometricPrecision; image-rendering:optimizeQuality; fill-rule:evenodd; clip-rule:evenodd"
viewBox="0 0 14393.22 9538.15"
 xmlns:xlink="http://www.w3.org/1999/xlink"
 xmlns:xodm="http://www.corel.com/coreldraw/odm/2003">
 <defs>
  <style type="text/css">
   <![CDATA[
    .fil1 {fill:#00627D;fill-rule:nonzero}
    .fil0 {fill:#B8CDDB;fill-rule:nonzero}
   ]]>
  </style>
 </defs>
 <g id="Capa_x0020_1">
  <metadata id="CorelCorpID_0Corel-Layer"/>
  <g id="_2259934972160">
   <g>
    <path class="fil0" d="M3387.55 3351.36c-281.66,-172.2 -652.96,-321.26 -795.93,-429.2 -57.29,-43.25 -117.79,-80.08 -174.51,-124.42 -38.7,-30.25 -91.89,-71.52 -101.42,-130.73 -1.96,-12.18 -1.55,-24.7 1.05,-36.71 3.08,-14.14 9.14,-27.54 17.28,-39.02 19.09,-26.89 49.39,-43.26 78.34,-34.08 40.54,12.86 179.26,-59.11 256.06,-120.79 76.83,-61.68 87.9,-112.02 50.02,-105.6 0,0 -84.17,2.36 -81.99,-2.09 2.4,-4.87 91.52,-16.79 99.63,-20.82 15.57,-7.72 -29.24,-156.78 -185.02,-159.35 -155.76,-2.57 -279.53,59.11 -326.47,115.65 -46.95,56.55 -27.74,84.74 -57.62,105.35 -29.87,20.6 -140.84,138.82 -157.9,305.88 -17.07,167.05 151.51,385.52 422.49,503.74 271,118.23 612.42,233.89 731.93,303.28 119.49,69.4 335.04,228.74 168.58,362.38 -166.43,133.66 -416.11,313.55 -576.16,442.06 -160.02,128.49 -320.06,316.13 -305.14,488.33 14.93,172.19 204.85,390.65 311.54,485.74 106.71,95.09 381.99,362.4 407.58,444.64 25.61,82.24 78.96,156.78 -44.81,336.68 -8.55,12.41 -17.32,24.61 -26.2,36.74 -49.18,67.09 -100.66,132.2 -146.21,202.23 -51.63,79.42 -96.32,164.88 -123.22,257.53 -14.24,49.03 -23.36,99.75 -26.32,151 -1.58,27.09 -1.48,54.28 0.31,81.35 3.4,51.44 16.35,106.22 39.52,151.62 14.12,27.66 29.2,56.05 30.79,54.21 3.6,-4.16 -32.53,-118.14 -38.87,-168.78 -10.57,-84.34 10.91,-244.16 122.81,-400.94 111.92,-156.78 310.35,-318.69 353.05,-436.93 42.67,-118.23 100.27,-239.02 -108.84,-483.19 -209.11,-244.15 -559.08,-544.87 -552.68,-714.5 6.4,-169.62 162.2,-290.41 443.85,-485.75 114.59,-79.45 234.08,-151.43 346,-235.16 116.8,-87.4 225.91,-201.9 218.84,-366.05 -6.84,-158.71 -154.49,-263.45 -270.36,-334.31zm-843.67 -1123.99l0 0c24.8,0 44.93,11.5 44.93,25.69 0,14.2 -20.13,25.7 -44.93,25.7 -24.82,0 -44.95,-11.51 -44.95,-25.7 0,-14.2 20.13,-25.69 44.95,-25.69z"/>
    <path class="fil0" d="M2734.84 3351.36c281.66,-172.2 652.96,-321.26 795.93,-429.2 57.29,-43.25 117.79,-80.08 174.51,-124.42 38.7,-30.25 91.89,-71.52 101.42,-130.73 1.96,-12.18 1.55,-24.7 -1.05,-36.71 -3.08,-14.14 -9.14,-27.54 -17.28,-39.02 -19.08,-26.89 -49.38,-43.26 -78.34,-34.08 -40.54,12.86 -179.26,-59.11 -256.06,-120.79 -76.83,-61.68 -87.9,-112.02 -50.02,-105.6 0,0 84.17,2.36 81.99,-2.09 -2.4,-4.87 -91.52,-16.79 -99.63,-20.82 -15.57,-7.72 29.24,-156.78 185.02,-159.35 155.76,-2.57 279.53,59.11 326.47,115.65 46.95,56.55 27.74,84.74 57.62,105.35 29.87,20.6 140.84,138.82 157.9,305.88 17.07,167.05 -151.51,385.52 -422.49,503.74 -271,118.23 -612.42,233.89 -731.93,303.28 -119.48,69.4 -335.03,228.74 -168.58,362.38 166.43,133.66 416.11,313.55 576.16,442.06 160.02,128.49 320.06,316.13 305.15,488.33 -14.94,172.19 -204.86,390.65 -311.55,485.74 -106.71,95.09 -381.99,362.4 -407.58,444.64 -25.61,82.24 -78.96,156.78 44.81,336.68 8.55,12.41 17.32,24.61 26.2,36.74 49.18,67.09 100.66,132.2 146.21,202.23 51.63,79.42 96.32,164.88 123.22,257.53 14.24,49.03 23.36,99.75 26.32,151 1.58,27.09 1.48,54.28 -0.31,81.35 -3.4,51.44 -16.35,106.22 -39.52,151.62 -14.11,27.66 -29.2,56.05 -30.79,54.21 -3.6,-4.16 32.53,-118.14 38.87,-168.78 10.57,-84.34 -10.91,-244.16 -122.81,-400.94 -111.92,-156.78 -310.35,-318.69 -353.05,-436.93 -42.67,-118.23 -100.27,-239.02 108.84,-483.19 209.11,-244.15 559.08,-544.87 552.68,-714.5 -6.4,-169.62 -162.2,-290.41 -443.85,-485.75 -114.59,-79.45 -234.08,-151.43 -346,-235.16 -116.8,-87.4 -225.91,-201.9 -218.84,-366.05 6.84,-158.71 154.49,-263.45 270.36,-334.31zm843.67 -1123.99l0 0c-24.8,0 -44.93,11.5 -44.93,25.69 0,14.2 20.13,25.7 44.93,25.7 24.82,0 44.95,-11.51 44.95,-25.7 0,-14.2 -20.13,-25.69 -44.95,-25.69z"/>
    <path class="fil0" d="M3283.27 1878.88l49.5 -1251.87c0.05,-14.36 -6.47,-29.74 -25.27,-29.75l-109.33 -0.01 0 -25.62c96.16,-50.88 161.68,-151.92 161.68,-268.27 0,-167.54 -135.83,-303.36 -303.35,-303.36 -167.52,0 -303.34,135.82 -303.34,303.36 0,116.35 65.52,217.39 161.66,268.27l0 25.59 -109.66 -0.01c-18.04,0.01 -25.14,9.65 -25.26,29.83l34.71 1251.84 468.68 0z"/>
    <path class="fil0" d="M2105.92 482.75c-93.65,-13.57 -184.51,18.62 -272.89,44.86 -802.68,304.31 -1372.16,106.32 -1822.3,257.65 -81.96,222.9 326.62,400.08 520.55,345.46 -17.23,79.48 41.96,198.75 112.05,240.03 103.52,60.01 236.44,63.7 346.01,18.28 23,88.61 82.99,168.35 167.57,205.82 110.58,33.22 248.03,34.86 342.2,-44.19 28.72,53.16 66.4,101.95 113.62,140.08 105.5,126.66 339.34,19.24 447.19,-43.51 103.78,111.82 489.01,125.48 590.99,62.14 -12.83,-695.5 -2.16,-171.46 -18.28,-716.5 -169.61,-4.06 -379.88,-33.18 -422.85,-224.65 -9.89,-77.23 11.45,-272.76 -103.86,-285.46z"/>
    <path class="fil0" d="M3999.52 482.75c93.66,-13.57 184.51,18.62 272.89,44.86 802.68,304.31 1372.16,106.32 1822.31,257.65 81.95,222.9 -326.63,400.08 -520.55,345.46 17.23,79.48 -41.96,198.75 -112.05,240.03 -103.52,60.01 -236.44,63.7 -346.02,18.28 -22.99,88.61 -82.99,168.35 -167.57,205.82 -110.58,33.22 -248.02,34.86 -342.2,-44.19 -28.72,53.16 -66.4,101.95 -113.62,140.08 -105.5,126.66 -339.33,19.24 -447.19,-43.51 -103.78,111.82 -489,125.48 -590.99,62.14 12.83,-695.5 2.16,-171.46 18.28,-716.5 169.62,-4.06 379.89,-33.18 422.85,-224.65 9.89,-77.23 -11.45,-272.76 103.86,-285.46z"/>
    <path class="fil0" d="M8275.89 578.35c269.76,0 488.48,218.72 488.48,488.46 0,269.78 -218.73,488.47 -488.48,488.47 -269.75,0 -488.45,-218.7 -488.45,-488.47 0,-269.75 218.71,-488.46 488.45,-488.46z"/>
    <path class="fil0" d="M9977.31 2431.27c149.88,0 271.37,121.51 271.37,271.37 0,149.88 -121.49,271.37 -271.37,271.37 -149.86,0 -271.36,-121.49 -271.36,-271.37 0,-149.86 121.5,-271.37 271.36,-271.37z"/>
    <path class="fil0" d="M11679.54 578.35c269.76,0 488.48,218.72 488.48,488.46 0,269.78 -218.73,488.47 -488.48,488.47 -269.76,0 -488.45,-218.7 -488.45,-488.47 0,-269.75 218.7,-488.46 488.45,-488.46z"/>
   </g>
   <path class="fil1" d="M7158.61 1878.99l0 460.68 845.02 0 0 1958.7c0,760.93 -324.74,1427.49 -1184.53,1326.73l0 499c1110.76,74.05 1730.08,-780.54 1730.08,-1825.79l0 -1973.15 1146.82 1405.62 0 440.28 562.47 0 0 -442.26c47.98,-21.37 1008.39,-1270.22 1133.56,-1394.05l0 3787.23c422.28,33.76 797.94,60.72 1225.21,60.72 1157.7,0 1775.98,-490.98 1775.98,-1260.75 0,-503.16 -290.94,-842.59 -836.49,-1036.52 454.63,-200.05 697.1,-503.15 697.1,-951.71 0,-672.82 -575.89,-1091.07 -1612.41,-1091.07 -501.06,0 -994.57,36.22 -1497.86,36.22l-1094.15 1374.25c-50,59.55 -83.98,58.57 -131.35,-4.04l-1108.22 -1370.21c-514.97,0 -1136.28,0.11 -1651.24,0.11zm-778.89 3580.41c-268.69,-200.81 -401.52,-569.78 -401.52,-1079.25l0 -2501.27 -580.26 0 0 1812.46 -2161.27 0 46.59 -1812.46 -468.68 0 245.67 4252.09 30.92 -41.51 119.91 -1896.16 2186.85 -4.97c12.55,794.35 92.47,1569.25 981.77,1855l0 -583.93zm5588.91 208.12l-0.06 -1497.23 691.03 0c733.47,0 1145.61,290.94 1145.61,775.84 0,490.98 -424.24,757.74 -1145.61,757.74 -242.4,0 -478.77,-12.16 -690.97,-36.35zm-0.06 -1945.78l0 -1382.07c187.94,-18.2 400.08,-30.3 666.84,-30.3 642.45,0 1042.53,242.48 1042.53,697.09 0,424.35 -406.09,715.28 -1042.53,715.28l-666.84 0zm-8896.4 2624.12c-16.54,14.81 -29.85,29.73 -40.43,44.29l5.52 236.25 14.48 32.7 15.4 -32.7 9.48 -284.41c-1.47,1.28 -3.03,2.58 -4.47,3.87zm-3003.46 2291.26l86.88 0 0 -416.54 493.91 0 0 416.54 83.3 0 0 -849.74 -83.3 0 0 349.9 -493.91 0 0 -349.9 -86.88 0 0 849.74zm1243.68 -861.64c-243.97,0 -442.72,197.56 -442.72,430.83 0,242.78 198.75,440.34 442.72,440.34 243.97,0 442.72,-197.55 442.72,-440.34 0,-233.26 -198.75,-430.83 -442.72,-430.83zm0 784.28c-196.37,0 -352.28,-157.09 -352.28,-353.46 0,-186.85 155.91,-343.95 352.28,-343.95 196.37,0 352.28,157.09 352.28,343.95 0,196.36 -155.91,353.46 -352.28,353.46zm1054.45 -598.63c-19.04,-109.48 -115.44,-186.84 -234.45,-186.84 -146.39,0 -243.97,98.78 -243.97,227.31 0,128.53 85.69,188.04 243.97,236.83 134.49,41.66 185.66,84.5 185.66,163.05 0,98.78 -82.12,159.47 -185.66,159.47 -91.63,0 -166.62,-58.31 -183.28,-140.43l-90.44 0c16.66,132.11 132.1,227.31 273.72,227.31 153.53,0 276.11,-97.59 276.11,-246.35 0,-148.76 -117.83,-210.65 -276.11,-260.64 -102.35,-32.14 -153.53,-65.45 -153.53,-139.24 0,-73.78 60.7,-140.43 153.53,-140.43 64.27,0 121.39,44.03 139.24,99.96l95.21 0zm196.37 -173.76l0 849.74 86.88 0 0 -321.33 191.61 0c163.05,0 271.35,-105.92 271.35,-264.2 0,-158.28 -109.5,-264.21 -271.35,-264.21l-278.49 0zm86.88 445.11l0 -361.8 191.61 0c109.48,0 180.9,72.59 180.9,180.9 0,108.3 -72.6,180.9 -180.9,180.9l-191.61 0zm593.87 404.63l86.88 0 0 -849.74 -86.88 0 0 849.74zm481.99 0l86.88 0 0 -766.43 286.82 0 0 -83.31 -661.7 0 0 83.31 288.01 0 0 766.43zm326.1 0l94.02 0 152.33 -337.99 365.36 0 152.34 337.99 94.02 0 -382.03 -849.74 -94.02 0 -382.03 849.74zm574.82 -421.3l-291.58 0 146.39 -323.72 145.2 323.72zm354.66 421.3l478.43 0 0 -83.3 -391.55 0 0 -766.44 -86.88 0 0 849.74zm1269.85 19.04c204.7,0 324.91,-121.39 324.91,-326.09l0 -542.7 -86.88 0 0 542.7c0,149.95 -88.08,239.21 -238.03,239.21 -151.14,0 -240.41,-89.26 -240.41,-239.21l0 -542.7 -86.88 0 0 542.7c0,204.69 121.39,326.09 327.28,326.09zm491.52 -19.04l86.88 0 0 -730.73 531.98 730.73 104.73 0 0 -849.74 -86.88 0 0 730.74 -531.98 -730.74 -104.73 0 0 849.74zm914.01 0l86.88 0 0 -849.74 -86.88 0 0 849.74zm540.31 0l94.02 0 358.23 -849.74 -94.02 0 -310.63 737.87 -311.8 -737.87 -94.02 0 358.22 849.74zm547.46 0l492.7 0 0 -83.3 -405.82 0 0 -361.8 382.03 0 0 -83.31 -382.03 0 0 -238.02 405.82 0 0 -83.31 -492.7 0 0 849.74zm647.42 0l86.88 0 0 -321.33 158.28 0 253.5 321.33 115.44 0 -259.44 -329.66c120.19,-28.56 195.17,-123.77 195.17,-255.87 0,-158.28 -109.49,-264.21 -271.35,-264.21l-278.49 0 0 849.74zm86.88 -404.63l0 -361.8 191.61 0c109.49,0 180.91,72.59 180.91,180.9 0,108.3 -72.6,180.9 -180.91,180.9l-191.61 0zm1109.2 -271.35c-19.05,-109.48 -115.45,-186.84 -234.45,-186.84 -146.39,0 -243.97,98.78 -243.97,227.31 0,128.53 85.68,188.04 243.97,236.83 134.48,41.66 185.65,84.5 185.65,163.05 0,98.78 -82.11,159.47 -185.65,159.47 -91.64,0 -166.62,-58.31 -183.28,-140.43l-90.45 0c16.66,132.11 132.1,227.31 273.73,227.31 153.52,0 276.1,-97.59 276.1,-246.35 0,-148.76 -117.82,-210.65 -276.1,-260.64 -102.35,-32.14 -153.53,-65.45 -153.53,-139.24 0,-73.78 60.7,-140.43 153.53,-140.43 64.26,0 121.39,44.03 139.24,99.96l95.21 0zm172.57 675.99l86.88 0 0 -849.74 -86.88 0 0 849.74zm482 0l86.88 0 0 -766.43 286.82 0 0 -83.31 -661.7 0 0 83.31 288.01 0 0 766.43zm326.09 0l94.02 0 152.34 -337.99 365.36 0 152.33 337.99 94.02 0 -382.03 -849.74 -94.02 0 -382.03 849.74zm574.82 -421.3l-291.57 0 146.39 -323.72 145.19 323.72zm378.47 421.3l86.88 0 0 -321.33 158.27 0 253.5 321.33 115.44 0 -259.44 -329.66c120.19,-28.56 195.17,-123.77 195.17,-255.87 0,-158.28 -109.49,-264.21 -271.34,-264.21l-278.49 0 0 849.74zm86.88 -404.63l0 -361.8 191.61 0c109.48,0 180.9,72.59 180.9,180.9 0,108.3 -72.6,180.9 -180.9,180.9l-191.61 0zm634.33 404.63l86.88 0 0 -849.74 -86.88 0 0 849.74zm666.47 -861.64c-243.98,0 -442.72,197.56 -442.72,430.83 0,242.78 198.74,440.34 442.72,440.34 243.97,0 442.71,-197.55 442.71,-440.34 0,-233.26 -198.74,-430.83 -442.71,-430.83zm0 784.28c-196.37,0 -352.28,-157.09 -352.28,-353.46 0,-186.85 155.91,-343.95 352.28,-343.95 196.37,0 352.28,157.09 352.28,343.95 0,196.36 -155.91,353.46 -352.28,353.46zm-13633.35 749.09c0,108.25 -39.36,148.59 -102.33,148.59 -38.38,0 -76.76,-20.66 -103.33,-48.22l-45.26 71.83c35.42,34.44 91.51,57.08 151.54,57.08 115.14,0 192.88,-71.83 192.88,-239.13l0 -461.52 -93.49 0 0 471.36zm727.22 153.52c-29.53,0 -58.06,-11.82 -58.06,-68.89l0 -378.86 -88.57 0 0 384.76c-39.37,36.41 -91.52,60.03 -145.64,60.03 -65.93,0 -100.37,-44.27 -100.37,-123.99l0 -320.8 -88.57 0 0 332.61c0,139.73 83.64,190.91 172.21,190.91 69.87,0 130.87,-32.48 177.13,-79.71 13.78,47.23 50.18,72.81 113.16,72.81l18.7 -68.88zm201.73 -664.24l-88.57 0 0 567.8c0,123.01 69.87,172.21 160.4,172.21 42.31,0 77.74,-8.86 101.35,-19.68l-21.65 -71.84c-17.71,7.87 -43.29,14.76 -67.9,14.76 -52.15,0 -83.64,-33.45 -83.64,-104.31l0 -558.94zm345.41 216.49l-88.57 0 0 511.71 88.57 0 0 -511.71zm-44.28 -87.58c38.38,0 61.99,-24.6 61.99,-61.99 0,-33.45 -27.55,-61.99 -61.99,-61.99 -38.38,0 -61.99,24.59 -61.99,61.99 0,33.45 27.55,61.99 61.99,61.99zm581.57 343.44c0,112.17 -61.01,188.93 -164.34,188.93 -93.48,0 -164.34,-87.59 -164.34,-190.91 0,-112.18 61.02,-186.96 164.34,-186.96 93.49,0 164.34,86.59 164.34,188.94zm-419.21 0c0,158.42 108.25,267.66 254.87,267.66 145.64,0 254.87,-106.28 254.87,-269.64 0,-162.36 -112.18,-265.69 -254.87,-265.69 -144.65,0 -254.87,102.34 -254.87,267.67zm1482.97 255.85l93.49 0 0 -688.84 -133.83 0 -187.96 435.94 -190.9 -435.94 -130.88 0 0 688.84 88.56 0 0 -569.77 185 414.29 92.51 0 184.01 -414.29 0 569.77zm675.07 -219.45c1.97,-21.65 2.95,-43.29 2.95,-66.91 0,-129.89 -73.8,-237.16 -220.42,-237.16 -137.77,0 -231.26,114.15 -231.26,267.67 0,169.25 92.5,267.66 239.13,267.66 72.81,0 131.86,-14.76 179.09,-36.41l-20.66 -75.77c-43.3,19.68 -88.57,33.45 -147.61,33.45 -90.53,0 -147.6,-57.08 -159.41,-152.53l358.19 0zm-219.45 -227.31c87.59,0 140.72,56.09 140.72,155.48l-280.45 0c9.84,-101.36 62.98,-155.48 139.73,-155.48zm-72.81 -119.07l196.81 -100.37 -41.34 -82.66 -185.98 123.01 30.51 60.03zm498.91 54.12l-85.61 0 0 511.71 88.57 0 0 -338.51c37.39,-58.06 93.48,-107.27 154.49,-107.27 61.99,0 98.41,48.22 98.41,122.02l0 323.76 88.57 0 0 -333.6c0,-114.15 -57.08,-189.92 -172.21,-189.92 -78.73,0 -135.8,42.32 -172.21,97.42l0 -85.61zm690.8 523.52c78.73,0 128.91,-40.35 158.43,-81.67 13.78,49.2 51.17,74.78 114.15,74.78l18.7 -68.88c-28.54,0 -58.06,-9.84 -58.06,-60.04l0 -604.2 -88.57 0 0 267.67c-27.55,-28.55 -77.74,-62.98 -145.64,-62.98 -124,0 -227.32,115.14 -227.32,270.61 0,161.38 101.36,264.71 228.3,264.71zm19.68 -78.73c-89.55,0 -157.44,-79.71 -157.44,-188.93 0,-107.27 61.01,-190.91 156.46,-190.91 54.12,0 101.35,32.47 125.96,63.96l0 253.88c-30.51,36.41 -76.76,61.99 -124.98,61.99zm794.13 -152.53c1.96,-21.65 2.95,-43.29 2.95,-66.91 0,-129.89 -73.8,-237.16 -220.43,-237.16 -137.77,0 -231.26,114.15 -231.26,267.67 0,169.25 92.51,267.66 239.13,267.66 72.82,0 131.87,-14.76 179.1,-36.41l-20.67 -75.77c-43.3,19.68 -88.57,33.45 -147.61,33.45 -90.52,0 -147.6,-57.08 -159.41,-152.53l358.2 0zm-219.45 -227.31c87.58,0 140.72,56.09 140.72,155.48l-280.46 0c9.85,-101.36 62.98,-155.48 139.74,-155.48zm302.1 11.81l276.52 0 -282.42 365.08 0 69.87 395.59 0 0 -78.73 -286.36 0 281.43 -365.08 0 -67.9 -384.76 0 0 76.76zm807.91 432.97c42.32,5.91 119.06,9.85 198.78,9.85 187.95,0 288.33,-79.72 288.33,-204.68 0,-81.67 -47.23,-136.79 -135.81,-168.27 73.81,-32.48 113.17,-81.67 113.17,-154.5 0,-109.23 -93.49,-177.13 -261.76,-177.13 -88.57,0 -156.45,4.92 -202.71,9.85l0 684.89zm205.66 -67.89c-39.37,0 -77.74,-1.98 -112.18,-5.91l0 -243.05 112.18 0c119.07,0 185.99,47.23 185.99,125.96 0,79.71 -68.89,123.01 -185.99,123.01zm-112.18 -321.79l0 -224.36c30.51,-2.96 64.94,-4.91 108.25,-4.91 104.31,0 169.25,39.36 169.25,113.16 0,68.89 -65.92,116.12 -169.25,116.12l-108.25 0zm482.19 138.75c0,161.38 102.33,264.71 230.27,264.71 79.71,0 129.89,-41.33 160.4,-83.65 12.79,50.2 50.19,76.76 114.15,76.76l18.7 -68.88c-28.54,0 -58.06,-9.84 -58.06,-60.04l0 -387.71 -80.7 0 0 41.33c-35.41,-29.52 -83.63,-53.13 -142.68,-53.13 -142.69,0 -242.07,118.09 -242.07,270.61zm249.95 185.98c-91.52,0 -159.41,-77.74 -159.41,-188.93 0,-114.16 65.93,-190.91 160.39,-190.91 47.24,0 90.53,16.72 125.97,41.33l0 274.55c-30.51,37.39 -77.75,63.96 -126.95,63.96zm695.73 -450.69c-13.78,-3.94 -34.43,-5.9 -54.11,-5.9 -87.59,0 -139.74,59.05 -164.35,123.01l0 -111.2 -85.61 0 0 511.71 88.57 0 0 -239.13c0,-133.83 71.83,-194.83 144.65,-194.83 16.74,0 32.49,2.95 44.28,7.86l26.57 -91.51zm392.65 0c-13.79,-3.94 -34.44,-5.9 -54.12,-5.9 -87.58,0 -139.73,59.05 -164.35,123.01l0 -111.2 -85.61 0 0 511.71 88.57 0 0 -239.13c0,-133.83 71.83,-194.83 144.66,-194.83 16.73,0 32.48,2.95 44.28,7.86l26.57 -91.51zm473.33 298.17c1.97,-21.65 2.95,-43.29 2.95,-66.91 0,-129.89 -73.8,-237.16 -220.42,-237.16 -137.77,0 -231.26,114.15 -231.26,267.67 0,169.25 92.5,267.66 239.12,267.66 72.82,0 131.87,-14.76 179.1,-36.41l-20.66 -75.77c-43.3,19.68 -88.57,33.45 -147.61,33.45 -90.53,0 -147.61,-57.08 -159.42,-152.53l358.2 0zm-219.45 -227.31c87.59,0 140.72,56.09 140.72,155.48l-280.45 0c9.84,-101.36 62.98,-155.48 139.73,-155.48zm426.09 -64.95l-85.61 0 0 511.71 88.58 0 0 -338.51c37.39,-58.06 93.47,-107.27 154.49,-107.27 61.99,0 98.41,48.22 98.41,122.02l0 323.76 88.57 0 0 -333.6c0,-114.15 -57.08,-189.92 -172.21,-189.92 -78.73,0 -135.8,42.32 -172.22,97.42l0 -85.61zm911.24 292.26c1.97,-21.65 2.95,-43.29 2.95,-66.91 0,-129.89 -73.8,-237.16 -220.42,-237.16 -137.77,0 -231.26,114.15 -231.26,267.67 0,169.25 92.5,267.66 239.13,267.66 72.81,0 131.86,-14.76 179.09,-36.41l-20.66 -75.77c-43.3,19.68 -88.57,33.45 -147.61,33.45 -90.53,0 -147.61,-57.08 -159.41,-152.53l358.19 0zm-219.45 -227.31c87.59,0 140.72,56.09 140.72,155.48l-280.45 0c9.84,-101.36 62.98,-155.48 139.73,-155.48zm693.76 -46.25c-40.35,-19.68 -81.67,-30.51 -139.73,-30.51 -152.53,0 -247.98,120.05 -247.98,267.67 0,157.44 94.46,267.66 241.09,267.66 63.97,0 113.17,-13.79 154.5,-36.41l-27.55 -74.79c-40.34,21.66 -71.83,32.48 -121.04,32.48 -93.48,0 -156.46,-84.62 -156.46,-190.91 0,-117.1 69.88,-186.96 162.38,-186.96 40.34,0 70.85,7.86 108.25,26.56l26.56 -74.78zm199.77 -235.19l-88.57 0 0 728.2 88.57 0 0 -338.51c37.39,-58.06 94.46,-107.27 155.48,-107.27 61.99,0 97.42,48.22 97.42,122.02l0 323.76 88.57 0 0 -333.6c0,-114.15 -57.08,-189.92 -172.21,-189.92 -76.76,0 -132.85,40.35 -169.25,93.48l0 -298.17zm908.27 508.75c1.97,-21.65 2.95,-43.29 2.95,-66.91 0,-129.89 -73.8,-237.16 -220.42,-237.16 -137.77,0 -231.26,114.15 -231.26,267.67 0,169.25 92.5,267.66 239.13,267.66 72.81,0 131.86,-14.76 179.09,-36.41l-20.66 -75.77c-43.3,19.68 -88.57,33.45 -147.61,33.45 -90.53,0 -147.6,-57.08 -159.41,-152.53l358.19 0zm-219.45 -227.31c87.59,0 140.72,56.09 140.72,155.48l-280.45 0c9.84,-101.36 62.98,-155.48 139.73,-155.48zm645.54 446.76l413.3 0 0 -80.69 -319.82 0 0 -239.13 275.54 0 0 -78.72 -275.54 0 0 -209.61 319.82 0 0 -80.69 -413.3 0 0 688.84zm539.26 -54.13c0,35.43 30.51,65.94 65.94,65.94 38.37,0 65.93,-26.57 65.93,-65.94 0,-35.41 -31.5,-65.92 -65.93,-65.92 -41.33,0 -65.94,25.58 -65.94,65.92zm243.06 -3.94c53.14,42.33 134.82,69.88 230.27,69.88 145.65,0 249.96,-73.81 249.96,-201.73 0,-93.49 -50.2,-155.49 -203.71,-212.57 -127.93,-47.23 -149.57,-74.78 -149.57,-125.96 0,-54.11 53.13,-91.51 139.73,-91.51 64.95,0 127.94,20.67 172.21,46.25l34.44 -79.71c-61.99,-30.51 -123.99,-47.24 -204.68,-47.24 -150.56,0 -234.2,79.72 -234.2,177.13 0,99.39 49.2,150.56 191.89,204.68 131.86,50.19 157.45,83.64 157.45,139.73 0,66.92 -59.05,109.23 -153.52,109.23 -78.73,0 -135.8,-27.56 -183.04,-66.92l-47.23 78.72zm611.1 3.94c0,35.43 30.51,65.94 65.94,65.94 38.37,0 65.93,-26.57 65.93,-65.94 0,-35.41 -31.5,-65.92 -65.93,-65.92 -41.33,0 -65.94,25.58 -65.94,65.92zm302.11 54.13l413.3 0 0 -80.69 -319.82 0 0 -239.13 275.54 0 0 -78.72 -275.54 0 0 -209.61 319.82 0 0 -80.69 -413.3 0 0 688.84zm539.26 -54.13c0,35.43 30.51,65.94 65.93,65.94 38.38,0 65.93,-26.57 65.93,-65.94 0,-35.41 -31.49,-65.92 -65.93,-65.92 -41.33,0 -65.93,25.58 -65.93,65.92z"/>
  </g>
 </g>
</svg>
